<svg xmlns="http://www.w3.org/2000/svg" viewBox="0 0 505.1 505.1" enable-background="new 0 0 505.1 505.1"><g fill="#FD8469"><circle cx="252.55" cy="252.5" r="252.5"/><path d="M505.05 252.5c0 137.1-109.3 248.7-245.6 252.4-2.3 0-4.6.1-6.9.1-4.3 0-8.6-.1-12.8-.3C106.25 498 .05 387.7.05 252.5.05 113 113.05 0 252.55 0s252.5 113 252.5 252.5z"/></g><path fill="#fff" d="M259.45 340.4V505c-2.3 0-4.6.1-6.9.1-4.3 0-8.6-.1-12.8-.3V340.4h19.7z"/><path fill="#CED5E0" d="M218.75 269.5l-40.8 40.8 49 49c11.3 11.3 29.5 11.3 40.8 0 11.3-11.3 11.3-29.5 0-40.8l-49-49z"/><path fill="#2B3B4E" d="M323.75 221.4l-56.5-56.5-156.9 176.3c-9.3 10.4-8.8 26.2 1 36.1 9.9 9.9 25.7 10.3 36.1 1l176.3-156.9z"/><circle cx="321.55" cy="167.2" r="79.9" fill="#324A5E"/><g fill="#E6E9EE"><path d="M266.95 290.6l-70.7 62c-4.1 3.6-10.3 3.4-14.1-.5l-44-44c-3.9-3.9-4.1-10-.5-14.1l62-70.7c3.9-4.5 10.9-4.7 15.1-.5l52.6 52.6c4.3 4.3 4.1 11.2-.4 15.2z"/><circle cx="249.65" cy="340.4" r="14.5"/></g></svg>