<svg xmlns="http://www.w3.org/2000/svg" viewBox="0 0 512.19 512.19" enable-background="new 0 0 512.19 512.19"><circle cx="342.495" cy="342.477" r="169.6" fill="#66C6B9"/><circle cx="342.495" cy="342.477" r="130.133" fill="#fff"/><path fill="#F3705A" d="M351.03 339.28l36.27 36.26c3.2 3.2 3.2 8.54 0 11.74-3.2 3.2-8.54 3.2-11.74 0L336.1 347.8"/><path fill="#FFD15C" d="M336.1 347.8c-1.07-1.06-2.14-3.2-2.14-5.32v-82.14c0-4.26 3.2-8.53 8.54-8.53 4.26 0 8.53 3.2 8.53 8.54v77.87"/><circle cx="342.495" cy="342.477" r="20.267" fill="#415A6B"/><circle cx="342.495" cy="342.477" r="9.6" fill="#344A5E"/><g fill="#E8EAE9"><circle cx="342.495" cy="230.477" r="8.533"/><circle cx="263.562" cy="263.544" r="8.533"/><circle cx="230.495" cy="342.477" r="8.533"/><circle cx="263.562" cy="421.41" r="8.533"/><circle cx="342.495" cy="454.477" r="8.533"/><circle cx="421.428" cy="421.41" r="8.533"/><circle cx="454.495" cy="342.477" r="8.533"/><circle cx="421.428" cy="263.544" r="8.533"/></g><circle cx="128.095" cy="128.077" r="128" fill="#FFD15C"/><circle cx="128.095" cy="128.077" r="92.8" fill="#F7B64C"/><path fill="#FFD15C" d="M121.7 187.8v-10.66c-12.8-2.13-23.47-7.46-34.14-17.06l13.87-16c7.47 6.4 14.93 10.66 20.27 12.8v-21.34c-10.67-2.13-18.14-6.4-22.4-10.66-4.27-4.27-7.47-10.67-7.47-19.2s3.2-14.94 8.53-20.27 12.8-8.52 21.33-9.6v-7.46h14.93v7.47c9.6 1.08 19.2 5.34 28.8 11.74L153.7 104.6c-6.4-4.26-11.74-7.46-17.07-8.52v21.33c10.66 3.2 18.13 6.4 23.46 10.68 5.33 4.26 7.46 10.66 7.46 19.2 0 8.53-3.2 14.93-8.53 20.26s-12.8 8.54-22.4 9.6v10.67H121.7zm0-92.8c-4.27 1.08-6.4 4.28-6.4 8.54 0 4.27 2.13 6.4 6.4 8.54V95zm23.46 53.34c0-2.13-1.06-4.26-2.13-5.33-1.07-1.06-3.2-2.12-5.33-4.26v18.14c4.26-1.07 7.46-4.27 7.46-8.54z"/><g fill="#F3705A"><path d="M486.5 119.54C466.23 37.4 384.1-13.8 300.9 3.28c-11.74 2.13-23.47 6.4-34.14 10.66 70.4 2.14 133.34 50.14 150.4 120.54l-25.6 5.33 75.74 61.88 43.73-87.47-24.53 5.34zM25.7 365.94c6.4 84.27 77.86 149.34 163.2 146.14 11.73 0 23.46-2.14 35.2-5.34-69.34-12.8-122.67-71.46-128-142.93l25.6-1.06-64-73.6L.1 367l25.6-1.06z"/></g></svg>