<svg xmlns="http://www.w3.org/2000/svg" fill-rule="evenodd" viewBox="0 0 512 512" clip-rule="evenodd"><g fill="#8ac2ed"><path d="M378.25.3H1.67C.75.3 0 1.05 0 1.98v124.9c0 .93.75 1.68 1.67 1.68h376.58c.92 0 1.67-.75 1.67-1.67V1.97c0-.93-.75-1.68-1.67-1.68zM378.25 152.07H1.67c-.92 0-1.67.75-1.67 1.67v124.9c0 .93.75 1.68 1.67 1.68h376.58c.92 0 1.67-.75 1.67-1.67v-124.9c0-.93-.75-1.68-1.67-1.68zM378.25 303.84H1.67c-.92 0-1.67.75-1.67 1.67v124.92c0 .92.75 1.67 1.67 1.67h376.58c.92 0 1.67-.76 1.67-1.68v-124.9c0-.93-.75-1.68-1.67-1.68z"/></g><g fill="#fff"><path d="M225.88 58.36h-92.16c-4.6 0-8.35-3.74-8.35-8.36 0-4.6 3.74-8.35 8.35-8.35h92.16c4.6 0 8.35 3.74 8.35 8.35 0 4.62-3.74 8.36-8.35 8.36zM318.03 95.24h-184.3c-4.62 0-8.36-3.74-8.36-8.36 0-4.6 3.74-8.35 8.36-8.35h184.3c4.62 0 8.36 3.74 8.36 8.35 0 4.62-3.75 8.36-8.37 8.36zM225.88 210.12h-92.16c-4.6 0-8.35-3.74-8.35-8.35 0-4.62 3.74-8.36 8.35-8.36h92.16c4.6 0 8.35 3.75 8.35 8.37 0 4.6-3.74 8.35-8.35 8.35zM316 247H133.73c-4.62 0-8.36-3.74-8.36-8.35 0-4.62 3.74-8.36 8.36-8.36H316c4.62 0 8.36 3.73 8.36 8.35 0 4.6-3.74 8.35-8.36 8.35zM225.88 361.9h-92.16c-4.6 0-8.35-3.75-8.35-8.36 0-4.62 3.74-8.36 8.35-8.36h92.16c4.6 0 8.35 3.74 8.35 8.36 0 4.6-3.74 8.35-8.35 8.35zM314.7 398.77H133.73c-4.62 0-8.36-3.74-8.36-8.35 0-4.62 3.74-8.36 8.35-8.36H314.7c4.6 0 8.35 3.74 8.35 8.36 0 4.6-3.74 8.35-8.35 8.35z"/></g><path fill="#324a5e" d="M94.08 104.5h-58.1c-4.62 0-8.36-3.75-8.36-8.37V40.75c0-4.62 3.74-8.36 8.36-8.36h42.15c4.6 0 8.35 3.73 8.35 8.35 0 4.62-3.74 8.36-8.36 8.36h-33.8V87.8h41.4v-6.6c0-4.6 3.74-8.34 8.36-8.34 4.6 0 8.35 3.74 8.35 8.35v14.93c0 4.62-3.74 8.36-8.35 8.36z"/><path fill="#469c08" d="M70.76 85.1c-.02 0-.03 0-.05 0-2.32-.02-4.52-1-6.1-2.7L49.95 66.42c-3.12-3.4-2.9-8.7.5-11.8 3.4-3.13 8.7-2.9 11.8.5l8.6 9.34L98.6 35.02c3.16-3.36 8.45-3.5 11.8-.35 3.37 3.16 3.52 8.45.36 11.8l-33.92 36c-1.58 1.68-3.78 2.63-6.08 2.63z"/><path fill="#324a5e" d="M94.08 256.26h-58.1c-4.62 0-8.36-3.74-8.36-8.36v-55.38c0-4.62 3.74-8.36 8.36-8.36h42.15c4.6 0 8.35 3.74 8.35 8.36 0 4.6-3.74 8.35-8.36 8.35h-33.8v38.67h41.4v-6.58c0-4.62 3.74-8.36 8.36-8.36 4.6 0 8.35 3.74 8.35 8.36v14.94c0 4.62-3.74 8.36-8.35 8.36z"/><path fill="#469c08" d="M70.76 236.86c-.02 0-.03 0-.05 0-2.32 0-4.52-1-6.1-2.7L49.95 218.2c-3.12-3.4-2.9-8.7.5-11.82 3.4-3.12 8.7-2.9 11.8.5l8.6 9.36L98.6 186.8c3.16-3.37 8.45-3.53 11.8-.36 3.37 3.16 3.52 8.45.36 11.8l-33.92 36c-1.58 1.67-3.78 2.62-6.08 2.62z"/><path fill="#324a5e" d="M94.08 408.02h-58.1c-4.62 0-8.36-3.74-8.36-8.35v-55.4c0-4.6 3.74-8.34 8.36-8.34h42.15c4.6 0 8.35 3.74 8.35 8.36 0 4.6-3.74 8.34-8.36 8.34h-33.8v38.67h41.4v-6.57c0-4.62 3.74-8.36 8.36-8.36 4.6 0 8.35 3.74 8.35 8.36v14.94c0 4.6-3.74 8.35-8.35 8.35z"/><path fill="#469c08" d="M70.76 388.63c-.02 0-.03 0-.05 0-2.32-.02-4.52-1-6.1-2.7l-14.65-15.97c-3.12-3.4-2.9-8.7.5-11.8 3.4-3.13 8.7-2.9 11.8.5l8.6 9.35 27.75-29.45c3.16-3.36 8.45-3.5 11.8-.35 3.37 3.17 3.52 8.46.36 11.82L76.84 386c-1.58 1.68-3.78 2.63-6.08 2.63z"/><path fill="#ef4c35" d="M402.33 447.96l7.4-19.7-22.7-16.7-22.78 16.75 8.24 19.66h29.83z"/><path fill="#dd3e2b" d="M372.5 447.96l.42 1.04-10.16 63h49.38l-10.17-63.06.36-.98H372.5z"/><path fill="#d2d2d7" d="M369.1 512l10.28-63.76-9.94-23.74-31.9-30.32 6.25 45.47L364.04 512h5.04z"/><path fill="#e4e4ea" d="M410.94 512l20.5-73.2 6.24-45.46-33.18 31.07-8.97 23.9L405.8 512h5.14z"/><path fill="#f5f5f7" d="M411.4 437.18c6.57 4.83 10.54.53 12.02-1.7l20.9-42.98-26.97-17.8-6.37 11.45-23.74 24.64-23.1-22.5-4.47-15.56-29.94 19.76 20.42 41.96c.56 1.12 4.7 8.53 12.6 2.73l24.28-17.88 23.14 17.03c.37.22.78.5 1.24.83z"/><path fill="#694b4b" d="M390.47 160h-6.33c-43.26 0-78.45 35.2-78.45 78.45v36.8s17.85-1.76 20.05-10.42h-.02c.76-.83 1.4-1.77 1.83-2.8 10.14-.32 57.46-.7 84.5-33.33 3.22 9.44 14.13 27.3 35.12 32.93.44 1.14 1.08 2.17 1.86 3.06l-.17.13c2.2 8.66 20.06 10.43 20.06 10.43v-36.81c0-43.25-35.2-78.45-78.46-78.45zm59.15 99.2l.76-.56h.1l-1.22.92.36-.37zm-.38.23l.08-.27.27-.52h.1l-.32.65-.14.13zm-2.08 1.6l-.03-.04 1.93-1.4-.45.44-1.4 1.04-.04-.04zm1.6-.45l-.6 1.25s-.02 0-.02 0l-.1-.04s-.02-.02-.03-.03l1-1.96.03-.02-.27.8z"/><path fill="#563b3b" d="M319.52 258.7v-20.25c0-42 33.18-76.4 74.7-78.36-1.24-.07-2.5-.1-3.75-.1h-6.33c-43.26 0-78.45 35.2-78.45 78.45v36.8s7.88-.78 13.82-3.85v-12.7z"/><path fill="#fbcb99" d="M459.5 263.9c-3-.95-6.26-.4-8.8 1.46-2.52 1.86-4 4.8-4 7.95v28.16c0 3.14 1.48 6.1 4 7.96 1.73 1.26 3.8 1.92 5.87 1.92.98 0 1.97-.14 2.93-.45 1.9-.6 3.76-1.45 5.53-2.54 1.05-.64 1.96-1.47 2.7-2.44 1.1-.56 2.07-1.32 2.88-2.24 4-4.5 6.2-10.3 6.2-16.3 0-10.83-6.95-20.27-17.3-23.5z"/><path fill="#edba89" d="M324.2 265.36c-2.54-1.87-5.8-2.4-8.8-1.48-10.35 3.23-17.3 12.67-17.3 23.5 0 10.84 6.95 20.3 17.3 23.5.96.3 1.95.46 2.94.46 2.08 0 4.13-.66 5.85-1.92 2.52-1.86 4.02-4.82 4.02-7.96V273.3c0-3.13-1.5-6.08-4.03-7.94z"/><path fill="#fbcb99" d="M414.42 350.53c-1.94-1.86-4.55-2.83-7.25-2.73h-.34c-.6.03-1.2.1-1.8.24-3.8.85-7.7 1.28-11.54 1.28h-12.1c-3.95 0-7.95-.45-11.88-1.35-2.93-.68-6 .02-8.36 1.9-2.35 1.87-3.72 4.72-3.72 7.72v28.82c-.16 2.85.92 5.63 2.96 7.62l19.85 19.34c1.84 1.8 4.32 2.8 6.9 2.8.04 0 .1 0 .15 0 2.63-.05 5.13-1.13 6.95-3.03l20.45-21.22c1.78-1.85 2.77-4.3 2.77-6.86v-27.4c0-2.7-1.1-5.27-3.05-7.14z"/><path fill="#edba89" d="M389.14 410.4L369.3 391.1c-2.05-2-3.14-4.77-2.98-7.62V354.63c0-2.53 1-4.94 2.7-6.75-2.78-.5-5.64.22-7.86 1.98-2.35 1.88-3.72 4.73-3.72 7.73v28.82c-.16 2.85.92 5.63 2.96 7.62l19.85 19.34c1.84 1.8 4.32 2.8 6.9 2.8.04 0 .1 0 .15 0 2.63-.05 5.13-1.14 6.95-3.03l.1-.1c-1.96-.33-3.78-1.24-5.2-2.64z"/><path fill="#fbcb99" d="M445.2 255.82c-1.2-.44-2.32-.96-3.42-1.5-16.6-7.76-23.5-17.83-26.26-23.84-.17-.23-.33-.48-.5-.8-2-3.64-5.08-1.33-5.08-1.33-15.5 11.88-32.44 18.83-46.52 22.88-5.48 1.62-10.73 2.8-15.48 3.64-9.43 1.73-15.5 1.96-15.5 1.96-5.16.37-9.17 4.67-9.17 9.85v40.3c0 32.07 26.1 58.15 58.14 58.15h12.1c32.04 0 58.13-26.08 58.13-58.14v-41.92c0-4.13-2.57-7.82-6.43-9.26z"/><path fill="#edba89" d="M335.13 307v-40.32c0-5.18 4-9.48 9.17-9.85 0 0 6.06-.23 15.5-1.96 4.75-.85 10-2.02 15.48-3.64 12.45-3.58 27.15-9.45 41.1-19-.32-.6-.6-1.2-.87-1.75-.15-.23-.32-.48-.48-.8-2-3.64-5.08-1.33-5.08-1.33-15.5 11.88-32.45 18.83-46.52 22.88-5.48 1.62-10.73 2.8-15.48 3.64-9.43 1.73-15.5 1.96-15.5 1.96-5.17.37-9.17 4.67-9.17 9.85v40.3c0 32.07 26.1 58.15 58.14 58.15h11.86c-32.05 0-58.13-26.08-58.13-58.14z"/><path fill="#324a5e" d="M274.26 512h96.3l-34.5-123.18-35.6 14.83-.05.02c-14.44 5.07-38.9 23.47-38.9 60.26v35.32c.2 3.8 1.8 12.75 12.77 12.75zM512 499.68v-35.75c0-37.24-25.44-55.7-38.96-60.28l-34.25-14.27L404.43 512h94.82c10.57 0 12.45-8.3 12.74-12.32z"/><path fill="#283d4c" d="M336.05 388.82l-35.6 14.83-.04.02c-14.44 5.07-38.9 23.47-38.9 60.26v35.32c.2 3.8 1.8 12.75 12.77 12.75h1.6v-48.07c0-36.8 24.45-55.2 38.9-60.26l.05-.02 22.73-9.47-1.5-5.36zM471.9 512v-49.1c0-3.1-2.5-5.6-5.58-5.6-3.1 0-5.6 2.5-5.6 5.6V512h11.18zM314.17 512v-49.1c0-3.1-2.5-5.6-5.6-5.6-3.07 0-5.57 2.5-5.57 5.6V512h11.17z"/></svg>